<svg xmlns="http://www.w3.org/2000/svg" viewBox="0 0 71.67 50.88"><defs><style>.cls-1{fill:#fff;}</style></defs><title>budget</title><g id="Layer_2" data-name="Layer 2"><g id="how_it_works" data-name="how it works"><path class="cls-1" d="M-788.73-484.44a10.07,10.07,0,0,1,3.3,2.94,7.55,7.55,0,0,1,1.35,4.56,8.55,8.55,0,0,1-3.27,6.9,15.19,15.19,0,0,1-8.73,3.12l-.72,5.88a1.94,1.94,0,0,1-.87,1.41,3,3,0,0,1-1.71.51,2.12,2.12,0,0,1-1.47-.51,1.5,1.5,0,0,1-.45-1.41l.78-6a12.72,12.72,0,0,1-6.93-2.88,7,7,0,0,1-2.55-5.4,4.53,4.53,0,0,1,1.08-3.24,3.43,3.43,0,0,1,2.58-1.14,2.77,2.77,0,0,1,2.22.84,5.43,5.43,0,0,1,1,2.64,4.05,4.05,0,0,0,1.05,2.31,4.6,4.6,0,0,0,2.31,1.29l1.2-9a31.57,31.57,0,0,1-4.71-2.25,10,10,0,0,1-3.24-3.12,8.57,8.57,0,0,1-1.29-4.83,8.87,8.87,0,0,1,3.36-7.2,14.66,14.66,0,0,1,8.52-3.12l.72-6a1.71,1.71,0,0,1,.78-1.38,2.85,2.85,0,0,1,1.62-.48,2.35,2.35,0,0,1,1.53.51,1.37,1.37,0,0,1,.51,1.35l-.84,6.18a11.3,11.3,0,0,1,6.06,2.64,6.64,6.64,0,0,1,2.22,5.1,4,4,0,0,1-1.05,3,3.66,3.66,0,0,1-2.61,1A2.86,2.86,0,0,1-789-491a3,3,0,0,1-.87-2.1,3.45,3.45,0,0,0-2.4-3.3l-1.32,9.72A40.41,40.41,0,0,1-788.73-484.44ZM-800-490.11a8.89,8.89,0,0,0,2.4,1.77l1-8.28a5.33,5.33,0,0,0-3.15,1.44,4,4,0,0,0-1.11,2.88A3.16,3.16,0,0,0-800-490.11Zm7.86,16.38a3.22,3.22,0,0,0,1.14-2.55,2.93,2.93,0,0,0-.87-2.1,8.53,8.53,0,0,0-2.55-1.68l-1,7.62A6.18,6.18,0,0,0-792.18-473.73Z" transform="translate(810 510)"/><path class="cls-1" d="M-762-481a8,8,0,0,1,2.64,2.35,6,6,0,0,1,1.08,3.65,6.83,6.83,0,0,1-2.62,5.52,12.1,12.1,0,0,1-7,2.49l-.58,4.71a1.52,1.52,0,0,1-.69,1.12,2.33,2.33,0,0,1-1.37.41,1.68,1.68,0,0,1-1.18-.41,1.21,1.21,0,0,1-.36-1.12l.63-4.8a10.16,10.16,0,0,1-5.55-2.31,5.6,5.6,0,0,1-2-4.32,3.61,3.61,0,0,1,.87-2.59,2.72,2.72,0,0,1,2.06-.91,2.22,2.22,0,0,1,1.78.67,4.39,4.39,0,0,1,.81,2.11,3.3,3.3,0,0,0,.84,1.85,3.62,3.62,0,0,0,1.85,1l1-7.2a24.24,24.24,0,0,1-3.77-1.8,8,8,0,0,1-2.59-2.49,6.85,6.85,0,0,1-1-3.87,7.07,7.07,0,0,1,2.69-5.76,11.7,11.7,0,0,1,6.81-2.49l.58-4.8a1.38,1.38,0,0,1,.62-1.11,2.36,2.36,0,0,1,1.3-.38A1.82,1.82,0,0,1-764-501a1.1,1.1,0,0,1,.41,1.08l-.67,4.94a9.08,9.08,0,0,1,4.85,2.11,5.32,5.32,0,0,1,1.77,4.08,3.2,3.2,0,0,1-.84,2.43,3,3,0,0,1-2.09.79,2.26,2.26,0,0,1-1.65-.63,2.36,2.36,0,0,1-.7-1.68,2.76,2.76,0,0,0-1.92-2.64l-1,7.78A32.5,32.5,0,0,1-762-481Zm-9-4.54a7.14,7.14,0,0,0,1.92,1.42l.82-6.63a4.3,4.3,0,0,0-2.52,1.15,3.15,3.15,0,0,0-.89,2.31A2.52,2.52,0,0,0-771.06-485.52Zm6.29,13.1a2.58,2.58,0,0,0,.91-2,2.32,2.32,0,0,0-.7-1.68,6.79,6.79,0,0,0-2-1.34l-.76,6.1A4.93,4.93,0,0,0-764.77-472.42Z" transform="translate(810 510)"/><path class="cls-1" d="M-741.58-477.53a6,6,0,0,1,2,1.77,4.51,4.51,0,0,1,.81,2.73,5.15,5.15,0,0,1-2,4.14A9.08,9.08,0,0,1-746-467l-.43,3.53a1.2,1.2,0,0,1-.53.85,1.8,1.8,0,0,1-1,.3,1.27,1.27,0,0,1-.88-.3.91.91,0,0,1-.27-.85l.46-3.6a7.52,7.52,0,0,1-4.15-1.73,4.18,4.18,0,0,1-1.54-3.24,2.72,2.72,0,0,1,.65-1.94,2,2,0,0,1,1.55-.68,1.63,1.63,0,0,1,1.33.5,3.24,3.24,0,0,1,.61,1.58,2.52,2.52,0,0,0,.63,1.39,2.75,2.75,0,0,0,1.39.77l.72-5.4a18.2,18.2,0,0,1-2.82-1.35,5.9,5.9,0,0,1-2-1.87A5.1,5.1,0,0,1-753-482a5.35,5.35,0,0,1,2-4.32,8.88,8.88,0,0,1,5.11-1.87l.44-3.6a1,1,0,0,1,.47-.83,1.7,1.7,0,0,1,1-.28,1.4,1.4,0,0,1,.91.3.82.82,0,0,1,.31.81l-.5,3.71a6.83,6.83,0,0,1,3.63,1.58,4,4,0,0,1,1.33,3.06,2.38,2.38,0,0,1-.63,1.82,2.17,2.17,0,0,1-1.56.6,1.72,1.72,0,0,1-1.24-.47,1.79,1.79,0,0,1-.53-1.26,2.06,2.06,0,0,0-1.44-2l-.79,5.83A25.07,25.07,0,0,1-741.58-477.53Zm-6.79-3.4a5.38,5.38,0,0,0,1.44,1.06l.61-5a3.21,3.21,0,0,0-1.89.87,2.38,2.38,0,0,0-.66,1.73A1.87,1.87,0,0,0-748.37-480.93Zm4.72,9.83a2,2,0,0,0,.68-1.53,1.75,1.75,0,0,0-.52-1.26,5.13,5.13,0,0,0-1.53-1l-.58,4.57A3.79,3.79,0,0,0-743.65-471.1Z" transform="translate(810 510)"/></g></g></svg>