<svg xmlns="http://www.w3.org/2000/svg" viewBox="0 0 48.96 49.01"><defs><style>.cls-1{fill:#fff;}</style></defs><title>launch</title><g id="Layer_2" data-name="Layer 2"><g id="how_it_works" data-name="how it works"><path class="cls-1" d="M47.12.53,46.7.61,32.47,6.12,16.49.53l-15,5.06a1.35,1.35,0,0,0-1,1.28V47.15a1.32,1.32,0,0,0,1.33,1.33l.43-.08,14.23-5.51,16,5.59,15-5.06a1.32,1.32,0,0,0,1-1.28V1.86A1.31,1.31,0,0,0,47.12.53ZM32.47,43.16l-16-5.63V5.86l16,5.62Z"/><path class="cls-1" d="M32.47,49l-16-5.59-14,5.45-.52.1h0A1.83,1.83,0,0,1,0,47.15V6.87A1.84,1.84,0,0,1,1.3,5.12L16.49,0l16,5.59L46.52.14l.6-.11A1.81,1.81,0,0,1,49,1.86V42.14a1.87,1.87,0,0,1-1.31,1.76Zm-16-47.95-14.86,5A.86.86,0,0,0,1,6.87V47.15a.82.82,0,0,0,.83.83l.34-.07,14.31-5.55,16,5.59,14.87-5a.86.86,0,0,0,.62-.81V1.86a.83.83,0,0,0-.8-.83l-.37.07L32.48,6.66ZM33,43.86l-17-6V5.15l17,6ZM17,37.18l15,5.27V11.83L17,6.56Z"/></g></g></svg>