<svg xmlns="http://www.w3.org/2000/svg" viewBox="0 0 342.35 101.7"><defs><style>.cls-1{fill:#fff;}.cls-2{fill:#00a551;}.cls-2,.cls-3{stroke:#fff;stroke-miterlimit:10;stroke-width:5px;}.cls-3{fill:#ec1c24;}</style></defs><title>logo</title><g id="Layer_2" data-name="Layer 2"><g id="header"><path class="cls-1" d="M227.42,77.49q-9.63,0-15.66-6.32t-6-16.9V52.78a28.44,28.44,0,0,1,2.69-12.57,21,21,0,0,1,7.53-8.66,18.93,18.93,0,0,1,10.47-3.12q9.22,0,14.34,6.07t5.12,17.41v3.37H213.81q.18,7,4.09,11.3a12.87,12.87,0,0,0,9.95,4.31,14,14,0,0,0,7.26-1.75,18.32,18.32,0,0,0,5.21-4.64l4.94,3.85Q239.31,77.5,227.42,77.49Zm-1-42.42a10.76,10.76,0,0,0-8.22,3.57q-3.33,3.55-4.11,10h23.7V48q-.34-6.17-3.32-9.56A10.18,10.18,0,0,0,226.41,35.07Z" transform="translate(-174.67 -0.27)"/><path class="cls-1" d="M284.44,71.94q-4.72,5.55-13.86,5.55-7.57,0-11.52-4.39t-4-13V29.3h8.09V59.87q0,10.76,8.75,10.76,9.27,0,12.33-6.91V29.3h8.09V76.62h-7.69Z" transform="translate(-174.67 -0.27)"/><path class="cls-1" d="M327.47,36.56a24.64,24.64,0,0,0-4-.31q-8,0-10.8,6.78V76.62H304.6V29.3h7.87l.14,5.47a12.58,12.58,0,0,1,11.28-6.34,8.21,8.21,0,0,1,3.58.61Z" transform="translate(-174.67 -0.27)"/><path class="cls-1" d="M353.71,77.49q-9.61,0-15.65-6.32t-6-16.9V52.78a28.44,28.44,0,0,1,2.69-12.57,21,21,0,0,1,7.52-8.66,19,19,0,0,1,10.48-3.12q9.23,0,14.34,6.07t5.12,17.41v3.37H340.11q.18,7,4.09,11.3a12.87,12.87,0,0,0,9.95,4.31,14,14,0,0,0,7.26-1.75,18.15,18.15,0,0,0,5.2-4.64l4.95,3.85Q365.6,77.5,353.71,77.49Zm-1-42.42a10.76,10.76,0,0,0-8.22,3.57q-3.33,3.55-4.12,10h23.71V48c-.24-4.11-1.34-7.3-3.33-9.56A10.14,10.14,0,0,0,352.71,35.07Z" transform="translate(-174.67 -0.27)"/><path class="cls-1" d="M394.73,54.71,389.66,60V76.62h-8.09V9.45h8.09V50.07l4.33-5.2L408.73,29.3h9.84L400.16,49.07l20.55,27.55h-9.49Z" transform="translate(-174.67 -0.27)"/><path class="cls-1" d="M456.13,76.62a17.23,17.23,0,0,1-1.13-5,18,18,0,0,1-13.47,5.86,16.73,16.73,0,0,1-11.48-3.95,12.82,12.82,0,0,1-4.49-10A13.39,13.39,0,0,1,431.18,52q5.63-4.1,15.81-4.09h7.88V44.21a9.08,9.08,0,0,0-2.54-6.75q-2.54-2.52-7.48-2.52a11.77,11.77,0,0,0-7.26,2.19,6.45,6.45,0,0,0-2.93,5.29h-8.13A11.13,11.13,0,0,1,429,35.58a17.19,17.19,0,0,1,6.82-5.23,23,23,0,0,1,9.47-1.92q8.18,0,12.82,4.08T463,43.78V65.55a26.62,26.62,0,0,0,1.66,10.37v.7Zm-13.42-6.17a14.13,14.13,0,0,0,7.21-2,11.92,11.92,0,0,0,4.95-5.11V53.66h-6.35q-14.86,0-14.86,8.7a7.37,7.37,0,0,0,2.53,6A9.74,9.74,0,0,0,442.71,70.45Z" transform="translate(-174.67 -0.27)"/><path class="cls-1" d="M220.9,55.25c-11.26,0-22.51.14-33.77.19V9.5h8.18c0,13.08-.17,26.09,0,39.13H221C221,50,220.93,53.9,220.9,55.25Z" transform="translate(-174.67 -0.27)"/><circle class="cls-2" cx="16.29" cy="16.29" r="13.79"/><path class="cls-1" d="M490.6,57.78a5.94,5.94,0,0,0-5.09,2.47c-1.21,1.65-2.26,4.52-3.13,8.61a40.81,40.81,0,0,1-3.15,9.76A13.84,13.84,0,0,1,474.86,84a10.49,10.49,0,0,1-6,1.73c-3.88,0-6.78-1.43-9.84-4.92a17.32,17.32,0,0,1-2.86-4.15c0,.1,5.76-.65,8.5-.69a5,5,0,0,0,.95,1.83,4,4,0,0,0,3.57,1.94c1.95,0,3.72-2.25,4.42-4a72.94,72.94,0,0,0,2.26-8.8,43.15,43.15,0,0,1,3.24-9.82,14.31,14.31,0,0,1,4.52-5.58A11.15,11.15,0,0,1,490,49.69a12.08,12.08,0,0,1,10.17,5.07c3.84,4.88,3.89,11.07,3.83,13.16h-6.61a13.26,13.26,0,0,0-1.86-7.36A5.68,5.68,0,0,0,490.6,57.78Z" transform="translate(-174.67 -0.27)"/><polyline class="cls-1" points="329.36 67.65 329.37 85.41 322.76 85.41 322.75 67.65"/><circle class="cls-3" cx="326.06" cy="85.41" r="13.79"/></g></g></svg>