<svg viewBox="0 0 42.16 42.2" xmlns="http://www.w3.org/2000/svg"><g fill="#fff"><path d="m40.58.46-.37.06-12.21 4.75-13.8-4.81-12.94 4.35a1.16 1.16 0 0 0 -.83 1.11v34.68a1.14 1.14 0 0 0 1.15 1.15l.36-.07 12.26-4.75 13.8 4.82 12.9-4.36a1.16 1.16 0 0 0 .83-1.1v-34.69a1.14 1.14 0 0 0 -1.15-1.14zm-12.58 36.7-13.8-4.84v-27.32l13.8 4.88z"/><path d="m28 42.2-13.8-4.81-12.1 4.69-.44.09a1.57 1.57 0 0 1 -1.66-1.57v-34.68a1.58 1.58 0 0 1 1.12-1.51l13.08-4.41 13.8 4.81 12.06-4.69.52-.1a1.57 1.57 0 0 1 1.58 1.58v34.69a1.59 1.59 0 0 1 -1.16 1.51zm-13.81-41.29-12.8 4.31a.74.74 0 0 0 -.53.7v34.68a.72.72 0 0 0 .72.72l.29-.06 12.32-4.79 13.81 4.82 12.76-4.29a.72.72 0 0 0 .53-.69v-34.71a.69.69 0 0 0 -.68-.71l-.32.11-12.29 4.73zm14.2 36.86-14.63-5.14v-28.19l14.63 5.14zm-13.76-5.77 12.9 4.53v-26.34l-12.9-4.54z"/></g></svg>