<svg id="Layer_1" data-name="Layer 1" xmlns="http://www.w3.org/2000/svg" viewBox="0 0 300 101.4"><defs><style>.cls-1{fill:none;stroke:#fff;stroke-miterlimit:10;stroke-width:2px;}</style></defs><title>jms-monogram-final</title><rect x="200" width="100" height="101.4"/><path class="cls-1" d="M191.92,69.72c5.27,5,13.26,9.69,21.81,9.69,5,0,8-1.56,9.55-3.27a8.51,8.51,0,0,0,2.43-6,7.42,7.42,0,0,0-2.71-5.7c-2.43-2.14-6.13-3.14-12.26-5l-6.42-2c-4-1.28-9.84-3.42-13.69-7.7-4.85-5.28-5.42-12-5.42-16.82,0-11.69,4.57-18.82,8.7-23,4.85-4.84,12.83-9,24.38-9,9.41,0,20.39,3,29.37,7.7L237.83,28c-7.42-5.85-13-6.42-16.26-6.42a11.87,11.87,0,0,0-8.13,2.85A7.08,7.08,0,0,0,211,29.52a6.34,6.34,0,0,0,1.28,4.27c.72.85,2.43,2.57,8.27,4.28l7.56,2.28c6,1.86,12.26,4,17.25,9.41,4.85,5.13,6.13,10.41,6.13,17,0,8.69-2.14,17.1-9,24-8.13,8.13-18,9.7-28.09,9.7a50.91,50.91,0,0,1-18.67-3.14,66.3,66.3,0,0,1-14.41-7.56Z"/><rect x="100" width="99.99" height="101.4"/><path class="cls-1" d="M74.4,100.38,91.23,1h25.48l20.12,53,21.3-53h25.78l14.9,99.38H173l-7.3-57.22-24,57.22H131.46L108.52,43.16,100,100.38Z"/><rect width="100" height="101.4"/><path class="cls-1" d="M99.53,1V67.88c0,9-.73,15.74-8.31,23.31-6.41,6.41-14,9.19-23.75,9.19A25.67,25.67,0,0,1,52.17,96a34.7,34.7,0,0,1-9.62-9.91L59,69.19c.29,2.62,1.75,6.27,3.5,7.72a8.83,8.83,0,0,0,4.8,1.75,7.31,7.31,0,0,0,4.38-1.6c2.18-2,2.62-6.85,2.62-9.76V1Z"/></svg>